<svg width="34" height="34" viewBox="0 0 34 34" fill="none" xmlns="http://www.w3.org/2000/svg">
<g id="comment 1" clip-path="url(#clip0_304_322)">
<path id="Vector" d="M17 34C26.3733 34 34 26.374 34 17C34 15.382 33.7741 13.7876 33.3269 12.2606C33.1066 11.5097 32.3225 11.0784 31.5696 11.2987C30.818 11.5184 30.3881 12.3052 30.6077 13.0561C30.9782 14.3247 31.1667 15.6522 31.1667 17C31.1667 24.8114 24.8114 31.1667 17 31.1667C9.18862 31.1667 2.83333 24.8114 2.83333 17C2.83333 9.18862 9.18862 2.83333 17 2.83333C19.8389 2.83333 22.5702 3.66341 24.8985 5.2333C25.5467 5.67082 26.428 5.49892 26.8648 4.85077C27.302 4.20192 27.1314 3.32135 26.4826 2.88418C23.6846 0.997477 20.4057 0 17 0C7.62669 0 0 7.626 0 17C0 26.374 7.62669 34 17 34Z" fill="#A9CD51"/>
<path id="Vector_2" d="M31.5817 3.2484L17 17.8294L12.335 13.1651C11.7816 12.612 10.8851 12.612 10.3317 13.1651C9.77867 13.7185 9.77867 14.6149 10.3317 15.1683L15.9984 20.835C16.2754 21.112 16.6372 21.25 17 21.25C17.3628 21.25 17.7246 21.112 18.0016 20.835L33.585 5.25165C34.138 4.69827 34.138 3.80178 33.585 3.2484C33.0316 2.69536 32.1351 2.69536 31.5817 3.2484Z" fill="#A9CD51"/>
</g>
<defs>
<clipPath id="clip0_304_322">
<rect width="34" height="34" fill="white"/>
</clipPath>
</defs>
</svg>
