<svg width="34" height="34" viewBox="0 0 34 34" fill="none" xmlns="http://www.w3.org/2000/svg">
<g id="005-hair-gel">
<g id="Group">
<path id="Vector" d="M31.2116 33.9933H21.5102C19.6867 33.9933 18.2031 32.5097 18.2031 30.6862V29.4233C18.2031 27.252 19.9696 25.4855 22.141 25.4855H23.4297C23.8331 25.4855 24.1602 25.8125 24.1602 26.2159V27.7175C24.1602 27.7979 24.2255 27.8632 24.3059 27.8632H26.5424C29.5198 27.8632 31.942 30.2854 31.942 33.2628C31.9421 33.6663 31.615 33.9933 31.2116 33.9933ZM22.141 26.9465C20.7753 26.9465 19.6641 28.0576 19.6641 29.4234V30.6863C19.6641 31.7042 20.4922 32.5324 21.5102 32.5324H30.4133C30.0699 30.7084 28.4648 29.3243 26.5426 29.3243H24.306C23.4202 29.3243 22.6994 28.6035 22.6994 27.7176V26.9465L22.141 26.9465Z" fill="#55C4FC"/>
<g id="Group_2">
<path id="Vector_2" d="M3.91438 15.9828H15.0255V17.4437H3.91438V15.9828Z" fill="#55C4FC"/>
<path id="Vector_3" d="M3.40073 8.5419H15.5122V10.0028H3.40073V8.5419Z" fill="#55C4FC"/>
</g>
<path id="Vector_4" d="M16.573 0.23023C16.4349 0.0833399 16.2423 0 16.0407 0H2.7884C2.58559 0 2.39189 0.084336 2.25369 0.232754C2.1155 0.381238 2.04525 0.580457 2.05979 0.78273L3.83277 25.4931L3.83582 31.569C3.83649 32.9095 4.92761 34 6.26802 34H12.8193C13.4703 34 14.082 33.7461 14.5417 33.285C15.0014 32.8239 15.2534 32.2115 15.2515 31.5604L15.233 25.4817L16.7698 0.775758C16.7823 0.574547 16.7111 0.377187 16.573 0.23023ZM13.5071 32.2535C13.3236 32.4376 13.0793 32.5391 12.8193 32.5391H6.26802C5.73272 32.5391 5.29703 32.1036 5.29683 31.5683L5.2941 26.1973H6.45542V26.804C6.45542 28.4356 7.78288 29.7631 9.41455 29.7631C11.0462 29.7631 12.3737 28.4356 12.3737 26.804V26.1973H13.7742L13.7905 31.5649C13.7913 31.8249 13.6906 32.0694 13.5071 32.2535ZM7.91635 26.1973H10.9127V26.804C10.9127 27.63 10.2406 28.3021 9.41455 28.3021C8.58845 28.3021 7.91635 27.63 7.91635 26.804V26.1973ZM13.8156 24.7364H5.24317L3.57319 1.46094H15.2634L13.8156 24.7364Z" fill="#55C4FC"/>
</g>
</g>
</svg>
