<svg width="34" height="34" viewBox="0 0 34 34" fill="none" xmlns="http://www.w3.org/2000/svg">
<g id="003-aloe-vera" clip-path="url(#clip0_307_96)">
<g id="Group">
<g id="Group_2">
<path id="Vector" d="M27.4501 22.0001C25.264 22.0001 23.4855 20.2216 23.4855 18.0355C23.4855 17.3804 23.64 16.8288 24.0021 16.1908L26.7152 11.4105C26.8433 11.1849 27.0813 11.0442 27.3407 11.0407C27.344 11.0406 27.3473 11.0406 27.3505 11.0406C27.6062 11.0406 27.8435 11.1744 27.9758 11.3936L30.8441 16.1456C31.1404 16.6364 31.4145 17.2051 31.4145 18.0355C31.4146 20.2215 29.6361 22.0001 27.4501 22.0001ZM27.3699 13.2168L25.2727 16.9119C25.0379 17.3256 24.9464 17.6406 24.9464 18.0355C24.9464 19.416 26.0696 20.5391 27.4501 20.5391C28.8305 20.5391 29.9537 19.416 29.9537 18.0355C29.9537 17.633 29.8628 17.3467 29.5935 16.9005L27.3699 13.2168Z" fill="#55C4FC"/>
<path id="Vector_2" d="M14.8091 28.2434H31.4418V29.7044H14.8091V28.2434Z" fill="#55C4FC"/>
<path id="Vector_3" d="M18.097 22.0001C16.6091 22.0001 15.3985 20.7895 15.3985 19.3015C15.3985 18.8561 15.5069 18.4664 15.7502 18.0379L17.4012 15.1288C17.5293 14.9032 17.7673 14.7624 18.0267 14.759C18.03 14.7589 18.0333 14.7589 18.0365 14.7589C18.2922 14.7589 18.5295 14.8927 18.6618 15.1119L20.4073 18.0037C20.609 18.3378 20.7956 18.7263 20.7956 19.3015C20.7957 20.7895 19.5851 22.0001 18.097 22.0001ZM18.0559 16.935L17.0207 18.7589C16.9017 18.9687 16.8594 19.1107 16.8594 19.3014C16.8594 19.9838 17.4146 20.5391 18.097 20.5391C18.7794 20.5391 19.3347 19.9838 19.3347 19.3014C19.3347 19.1115 19.2931 18.9846 19.1566 18.7585L18.0559 16.935Z" fill="#55C4FC"/>
</g>
<path id="Vector_4" d="M33.2614 24.3015H31.4418H14.8091H12.9895C12.586 24.3015 12.259 24.6285 12.259 25.032C12.259 25.4354 12.586 25.7624 12.9895 25.7624H14.0786V28.9738C14.0786 31.7452 16.3333 33.9999 19.1047 33.9999H27.1462C29.9175 33.9999 32.1723 31.7452 32.1723 28.9738V25.7624H33.2615C33.6649 25.7624 33.992 25.4354 33.992 25.032C33.992 24.6285 33.6648 24.3015 33.2614 24.3015ZM30.7112 28.9739C30.7112 30.9397 29.1119 32.5391 27.1461 32.5391H19.1047C17.1389 32.5391 15.5395 30.9397 15.5395 28.9739V25.7625H30.7112V28.9739Z" fill="#55C4FC"/>
<path id="Vector_5" d="M29.0293 6.34366C26.7197 6.17525 21.9505 5.24091 21.9505 3.42769C21.9505 3.10921 21.7442 2.82744 21.4405 2.73129C21.1372 2.63526 20.806 2.74676 20.6227 3.00721C19.8287 4.13512 18.5358 4.21095 17.5903 3.90575C16.6977 3.61755 15.8019 2.88469 15.8129 1.89703C15.8172 1.50968 15.5185 1.18635 15.1321 1.16005C14.7462 1.13362 14.4058 1.41359 14.3578 1.79788C14.1845 3.17913 12.4196 3.05389 12.0673 3.01458C10.8817 2.88263 9.6649 2.19864 9.74339 1.39074C9.78244 0.989186 9.48853 0.632053 9.08697 0.593073C8.68521 0.554092 8.32834 0.84794 8.28929 1.24943C8.25197 1.63359 7.28005 2.16889 5.83804 2.13283C4.75582 2.10587 3.47497 1.71341 3.42709 0.696003C3.4081 0.292983 3.06485 -0.017931 2.66302 0.000729196C2.26744 0.0193229 1.96018 0.349362 1.96709 0.742753C1.95434 0.870784 1.8283 1.30694 1.57323 1.69787C0.54938 3.26752 0.00810242 5.1259 0.00810242 7.0722C0.00810242 9.0185 0.54938 10.8769 1.57336 12.4465C1.82843 12.8374 1.9544 13.2736 1.96722 13.4016C1.96031 13.795 2.26758 14.1251 2.66316 14.1437C2.67491 14.1442 2.68653 14.1445 2.69809 14.1445C3.0857 14.1445 3.4087 13.8397 3.42716 13.4484C3.47504 12.431 4.75588 12.0385 5.83811 12.0116C7.27846 11.9753 8.25211 12.5108 8.28936 12.895C8.32841 13.2965 8.68581 13.5906 9.08703 13.5513C9.48859 13.5123 9.78251 13.1552 9.74346 12.7537C9.66497 11.9457 10.8818 11.2618 12.0674 11.1298C12.4196 11.0906 14.1846 10.9653 14.3578 12.3465C14.406 12.7308 14.7477 13.0105 15.1322 12.9843C15.5186 12.9581 15.8173 12.6347 15.813 12.2474C15.802 11.2597 16.6977 10.5269 17.5904 10.2387C18.5358 9.93344 19.8289 10.0093 20.6227 11.1373C20.8061 11.3977 21.137 11.5092 21.4406 11.4132C21.7442 11.317 21.9506 11.0353 21.9506 10.7168C21.9506 8.90348 26.7197 7.96915 29.0291 7.80074C29.411 7.77312 29.7066 7.4553 29.7068 7.0724C29.7068 6.68957 29.4111 6.37148 29.0293 6.34366ZM20.8835 9.35372C19.8505 8.61714 18.489 8.41341 17.1415 8.84843C16.1837 9.15762 15.4082 9.73443 14.9203 10.45C14.2184 9.83118 13.1583 9.53846 11.9058 9.67785C10.6662 9.81577 9.41647 10.3818 8.75633 11.2679C7.98808 10.7647 6.8773 10.5235 5.80172 10.5512C4.4979 10.5836 3.44436 10.9699 2.77346 11.6123C2.04711 10.4856 1.61354 9.18139 1.50005 7.8028H9.26234C9.66576 7.8028 9.99281 7.47575 9.99281 7.07233C9.99281 6.66891 9.66576 6.34186 9.26234 6.34186H1.50018C1.61367 4.96327 2.04724 3.65905 2.77359 2.5324C3.44449 3.17475 4.49803 3.56103 5.80185 3.59351C6.87823 3.6198 7.98814 3.37994 8.7564 2.87672C9.41647 3.76278 10.6664 4.32882 11.906 4.46675C13.1587 4.60614 14.2184 4.31348 14.9204 3.69451C15.4083 4.41004 16.1839 4.98691 17.1416 5.29616C18.4892 5.73126 19.8506 5.52739 20.8836 4.79088C21.4881 5.7531 22.7863 6.51724 24.7651 7.07233C22.7862 7.62735 21.488 8.39149 20.8835 9.35372Z" fill="#55C4FC"/>
</g>
</g>
<defs>
<clipPath id="clip0_307_96">
<rect width="34" height="34" fill="white"/>
</clipPath>
</defs>
</svg>
