<svg width="34" height="34" viewBox="0 0 34 34" fill="none" xmlns="http://www.w3.org/2000/svg">
<g id="capsules 1">
<g id="Group">
<g id="Group_2">
<g id="Group_3">
<path id="Vector" d="M30.4925 9.44615L30.4959 9.45626L30.5007 9.4658C30.5203 9.50514 30.5323 9.55972 30.5486 9.64115L30.5503 9.64958C30.5634 9.71521 30.5805 9.80134 30.6153 9.87712C30.7903 10.5252 30.85 11.2365 30.85 12.0158C30.85 13.8691 30.3133 15.6602 29.1813 17.2133C29.1171 17.2789 29.0685 17.3437 29.0256 17.4009L29.0237 17.4034C28.9776 17.4649 28.9378 17.5176 28.8855 17.5699L28.8779 17.5775L28.8715 17.586C28.6963 17.8196 28.5212 17.995 28.2768 18.2394L23.2253 23.291L18.1737 28.3426C16.4381 30.0782 14.2249 30.9158 11.95 30.9158C9.67519 30.9158 7.462 30.0782 5.72641 28.3426C2.31583 24.932 2.31583 19.3059 5.72641 15.8953L10.8389 10.7829L15.8904 5.73131L15.9077 5.7141L15.9185 5.69232C15.9353 5.65883 15.9623 5.62899 16.0113 5.58697C16.0229 5.57705 16.0365 5.56584 16.0515 5.55349C16.0928 5.51949 16.1446 5.47692 16.1926 5.42911C17.8064 3.93587 19.9596 3.15816 22.0532 3.15816C22.7759 3.15816 23.4831 3.21868 24.1866 3.51179L24.2003 3.5175L24.2148 3.52042C24.5245 3.58235 24.8073 3.63998 25.0293 3.75094L25.044 3.75831L25.06 3.7623C25.2898 3.81976 25.5836 3.93682 25.8205 4.05526L26.0031 4.14655L26.1774 4.23374C26.2712 4.29569 26.3782 4.35686 26.48 4.415L26.4826 4.4165C26.5902 4.47801 26.692 4.53622 26.7781 4.59366L26.778 4.59396L26.7869 4.59909C27.1977 4.83383 27.5517 5.1278 27.9165 5.4318L27.9725 5.48786L27.974 5.48928L27.9754 5.4907L27.9782 5.49352L27.9796 5.49492L27.981 5.49632L27.9838 5.4991L27.9893 5.50459L27.9899 5.50527L27.9906 5.50595L27.9913 5.50663L27.992 5.5073L27.9947 5.51L28 5.51533L28.0053 5.52059L28.0105 5.52577L28.0156 5.53089L28.0256 5.54092L28.0354 5.55071L28.036 5.55132L28.0366 5.55192L28.0378 5.55312L28.039 5.55432L28.0402 5.55552L28.045 5.56028L28.0473 5.56264L28.0497 5.56498L28.0502 5.56557L28.0508 5.56615L28.0514 5.56674L28.052 5.56732L28.0532 5.56848L28.0543 5.56964L28.0549 5.57022L28.0555 5.5708L28.0566 5.57195L28.0589 5.57426L28.0635 5.57883L28.0725 5.58786L28.0902 5.60554L28.1247 5.64001L28.1268 5.64215L28.129 5.64429L28.1311 5.64644L28.1316 5.64697L28.1322 5.64751L28.1333 5.64858L28.1418 5.65716L28.1505 5.66579L28.151 5.66633L28.1516 5.66687L28.1526 5.66796L28.1537 5.66904L28.1548 5.67013L28.1592 5.67449L28.1768 5.69217L28.1951 5.71039L28.2768 5.79217L28.2767 5.79229L28.282 5.7971C28.934 6.38977 29.4113 7.10379 29.8333 7.88741L29.833 7.88756L29.8381 7.89579C30.1314 8.36501 30.3089 8.89538 30.4925 9.44615ZM28.8295 9.47301L28.83 9.47284L28.8251 9.46135L28.8222 9.45451C28.6429 9.03616 28.4571 8.60265 28.2086 8.22776C27.9544 7.72282 27.5776 7.28571 27.15 6.85815C25.9062 5.61434 24.227 4.86803 22.4236 4.80584L22.4236 4.80576H22.4184H22.4177H22.417H22.4163H22.4155H22.4148H22.4141H22.4134H22.4127H22.412H22.4113H22.4105H22.4098H22.4091H22.4084H22.4077H22.407H22.4063H22.4056H22.4048H22.4041H22.4034H22.4027H22.402H22.4013H22.4006H22.3998H22.3991H22.3984H22.3977H22.397H22.3963H22.3956H22.3949H22.3941H22.3934H22.3927H22.392H22.3913H22.3906H22.3899H22.3892H22.3884H22.3877H22.387H22.3863H22.3856H22.3849H22.3842H22.3834H22.3827H22.382H22.3813H22.3806H22.3799H22.3792H22.3785H22.3777H22.377H22.3763H22.3756H22.3749H22.3742H22.3735H22.3727H22.372H22.3713H22.3706H22.3699H22.3692H22.3685H22.3678H22.367H22.3663H22.3656H22.3649H22.3642H22.3635H22.3628H22.362H22.3613H22.3606H22.3599H22.3592H22.3585H22.3578H22.3571H22.3563H22.3556H22.3549H22.3542H22.3535H22.3528H22.3521H22.3513H22.3506H22.3499H22.3492H22.3485H22.3478H22.3471H22.3464H22.3456H22.3449H22.3442H22.3435H22.3428H22.3421H22.3414H22.3407H22.3399H22.3392H22.3385H22.3378H22.3371H22.3364H22.3357H22.3349H22.3342H22.3335H22.3328H22.3321H22.3314H22.3307H22.33H22.3292H22.3285H22.3278H22.3271H22.3264H22.3257H22.325H22.3242H22.3235H22.3228H22.3221H22.3214H22.3207H22.32H22.3193H22.3185H22.3178H22.3171H22.3164H22.3157H22.315H22.3143H22.3135H22.3128H22.3121H22.3114H22.3107H22.31H22.3093H22.3086H22.3078H22.3071H22.3064H22.3057H22.305H22.3043H22.3036H22.3028H22.3021H22.3014H22.3007H22.3H22.2993H22.2986H22.2979H22.2971H22.2964H22.2957H22.295H22.2943H22.2936H22.2929H22.2922H22.2914H22.2907H22.29H22.2893H22.2886H22.2879H22.2872H22.2864H22.2857H22.285H22.2843H22.2836H22.2829H22.2822H22.2815H22.2807H22.28H22.2793H22.2786H22.2779H22.2772H22.2765H22.2757H22.275H22.2743H22.2736H22.2729H22.2722H22.2715H22.2708H22.27H22.2693H22.2686H22.2679H22.2672H22.2665H22.2658H22.265H22.2643H22.2636H22.2629H22.2622H22.2615H22.2608H22.2601H22.2593H22.2586H22.2579H22.2572H22.2565H22.2558H22.2551H22.2543H22.2536H22.2529H22.2522H22.2515H22.2508H22.2501H22.2494H22.2486H22.2479H22.2472H22.2465H22.2458H22.2451H22.2444H22.2437H22.2429H22.2422H22.2415H22.2408H22.2401H22.2394H22.2387H22.2379H22.2372H22.2365H22.2358H22.2351H22.2344H22.2337H22.233H22.2322H22.2315H22.2308H22.2301H22.2294H22.2287H22.228H22.2272H22.2265H22.2258H22.2251H22.2244H22.2237H22.223H22.2223H22.2215H22.2208H22.2201H22.2194H22.2187H22.218H22.2173H22.2165H22.2158H22.2151H22.2144H22.2137H22.213H22.2123H22.2116H22.2108H22.2101H22.2094H22.2087H22.208H22.2073H22.2066H22.2058H22.2051H22.2044H22.2037H22.203H22.2023H22.2016H22.2009H22.2001H22.1994H22.1987H22.198H22.1973H22.1966H22.1959H22.1952H22.1944H22.1937H22.193H22.1923H22.1916H22.1909H22.1902H22.1894H22.1887H22.188H22.1873H22.1866H22.1859H22.1852H22.1845H22.1837H22.183H22.1823H22.1816H22.1809H22.1802H22.1795H22.1787H22.178H22.1773H22.1766H22.1759H22.1752H22.1745H22.1738H22.173H22.1723H22.1716H22.1709H22.1702H22.1695H22.1688H22.168H22.1673H22.1666H22.1659H22.1652H22.1645H22.1638H22.1631H22.1623H22.1616H22.1609H22.1602H22.1595H22.1588H22.1581H22.1573H22.1566H22.1559H22.1552H22.1545H22.1538H22.1531H22.1524H22.1516H22.1509H22.1502H22.1495H22.1488H22.1481H22.1474H22.1467H22.1459H22.1452H22.1445H22.1438H22.1431H22.1424H22.1417H22.1409H22.1402H22.1395H22.1388H22.1381H22.1374H22.1367H22.136H22.1352H22.1345H22.1338H22.1331H22.1324H22.1317H22.131H22.1302H22.1295H22.1288H22.1281H22.1274H22.1267H22.126H22.1253H22.1245H22.1238H22.1231H22.1224H22.1217H22.121H22.1203H22.1195H22.1188H22.1181H22.1174H22.1167H22.116H22.1153H22.1146H22.1138H22.1131H22.1124H22.1117H22.111H22.1103H22.1096H22.1089H22.1081H22.1074H22.1067H22.106H22.1053H22.1046H22.1039H22.1031H22.1024H22.1017H22.101H22.1003H22.0996H22.0989H22.0982H22.0974H22.0967H22.096H22.0953H22.0946H22.0939H22.0932H22.0924H22.0917H22.091H22.0903H22.0896H22.0889H22.0882H22.0875H22.0867H22.086H22.0853H22.0846H22.0839H22.0832H22.0825H22.0817H22.081H22.0803H22.0796H22.0789H22.0782H22.0775H22.0768H22.076H22.0753H22.0746H22.0739H22.0732H22.0725H22.0718H22.071H22.0703H22.0696H22.0689H22.0682H22.0675H22.0668H22.0661H22.0653H22.0646H22.0639H22.0632H22.0625H22.0618H22.0611H22.0604H22.0596H22.0589H22.0582H22.0575H22.0568H22.0561H22.0554H22.0546H22.0539H22.0532C20.8858 4.80576 19.8371 5.04948 18.8502 5.53757C18.7783 5.54317 18.7207 5.56421 18.6691 5.58998C18.6437 5.60269 18.6187 5.61715 18.5968 5.62981L18.5909 5.63321C18.5664 5.64734 18.5431 5.66061 18.517 5.67367C18.3204 5.77195 18.1213 5.90957 17.9615 6.02004C17.9144 6.05265 17.8706 6.08289 17.8314 6.10906L17.7646 6.15359V6.18797C17.7613 6.19006 17.7579 6.1923 17.7543 6.19465C17.7347 6.20773 17.7111 6.22525 17.6868 6.24953C17.6714 6.26494 17.6488 6.28098 17.6077 6.31014C17.5982 6.31683 17.5878 6.32421 17.5763 6.33243C17.5209 6.37205 17.4521 6.42334 17.3825 6.49298L17.1999 6.67556L17.0173 6.85815L13.3047 10.5708L13.198 10.6775L13.3053 10.7835L23.2868 20.6433L23.3928 20.748L23.4983 20.6426L27.2109 16.93C27.7063 16.4346 28.1431 15.874 28.4562 15.2477C28.9526 14.255 29.2633 13.0757 29.2633 11.8941C29.2633 11.0205 29.076 10.2126 28.8295 9.47301ZM12.1778 12.0315L12.0718 11.9254L11.9657 12.0315L6.91535 17.0818C5.54575 18.3899 4.80086 20.2552 4.80086 22.119C4.80086 23.9848 5.54709 25.7872 6.91289 27.1537C8.22044 28.5228 10.0247 29.2682 11.95 29.2682C13.8161 29.2682 15.6188 28.5217 16.9853 27.1555C16.9855 27.1553 16.9858 27.1551 16.986 27.1549L22.0971 22.1654L22.2058 22.0594L22.0984 21.952L12.1778 12.0315Z" fill="#55C4FC" stroke="#EEF8FE" stroke-width="0.3"/>
</g>
</g>
<g id="Group_4">
<g id="Group_5">
<path id="Vector_2" d="M10.2397 24.6268L10.2418 24.6278C11.8234 25.387 13.7173 25.0068 14.9166 23.8075L16.9251 21.799C17.2317 21.4924 17.7454 21.4924 18.0519 21.799C18.3585 22.1056 18.3585 22.6192 18.0519 22.9258L16.0435 24.9343L16.0434 24.9343L16.0407 24.9372C14.9754 26.0617 13.4941 26.6554 11.95 26.6554C11.1818 26.6554 10.3519 26.4781 9.58059 26.1224C9.15392 25.9079 8.96393 25.4443 9.16281 25.0466C9.37685 24.6185 9.84129 24.4276 10.2397 24.6268Z" fill="#55C4FC" stroke="#EEF8FE" stroke-width="0.3"/>
</g>
</g>
</g>
</g>
</svg>
