<svg width="34" height="34" viewBox="0 0 34 34" fill="none" xmlns="http://www.w3.org/2000/svg">
<g id="008-protein" clip-path="url(#clip0_307_128)">
<g id="Group">
<path id="Vector" d="M24.5609 10.7095H0.730469C0.327051 10.7095 0 10.3825 0 9.97906C0 9.57565 0.327051 9.2486 0.730469 9.2486H24.5609C24.9644 9.2486 25.2914 9.57565 25.2914 9.97906C25.2914 10.3825 24.9644 10.7095 24.5609 10.7095Z" fill="#55C4FC"/>
<path id="Vector_2" d="M17.6474 30.152H0.730469C0.327051 30.152 0 29.825 0 29.4216C0 29.0181 0.327051 28.6911 0.730469 28.6911H17.6474C18.0508 28.6911 18.3779 29.0181 18.3779 29.4216C18.3779 29.825 18.0508 30.152 17.6474 30.152Z" fill="#55C4FC"/>
<path id="Vector_3" d="M22.5357 5.46822H22.051V2.75573C22.051 1.23622 20.8148 0 19.2953 0H6.06369C4.54418 0 3.30789 1.23622 3.30789 2.75573V5.46822H2.75573C1.23622 5.46822 0 6.70444 0 8.22395V31.2443C0 32.7638 1.23622 34 2.75573 34H21.8879C22.2913 34 22.6184 33.673 22.6184 33.2695C22.6184 32.8661 22.2913 32.5391 21.8879 32.5391H2.75573C2.04179 32.5391 1.46094 31.9582 1.46094 31.2443V8.22395C1.46094 7.51002 2.04179 6.92916 2.75573 6.92916H22.5357C23.2496 6.92916 23.8305 7.51002 23.8305 8.22395V21.5919C23.8305 21.9953 24.1575 22.3224 24.5609 22.3224C24.9644 22.3224 25.2914 21.9953 25.2914 21.5919V8.22395C25.2914 6.70444 24.0552 5.46822 22.5357 5.46822ZM4.76883 2.75573C4.76883 2.04179 5.34975 1.46094 6.06369 1.46094H19.2953C20.0093 1.46094 20.5901 2.04179 20.5901 2.75573V5.46822H17.7305V4.57845C17.7305 4.17503 17.4034 3.84798 17 3.84798C16.5966 3.84798 16.2695 4.17503 16.2695 4.57845V5.46816H13.41V4.57845C13.41 4.17503 13.083 3.84798 12.6795 3.84798C12.2761 3.84798 11.9491 4.17503 11.9491 4.57845V5.46816H9.08949V4.57845C9.08949 4.17503 8.76244 3.84798 8.35902 3.84798C7.9556 3.84798 7.62855 4.17503 7.62855 4.57845V5.46816H4.76883V2.75573Z" fill="#55C4FC"/>
<path id="Vector_4" d="M25.6411 24.7514C25.2377 24.7514 24.9106 24.4244 24.9106 24.0209C24.9106 22.637 23.7847 21.511 22.4007 21.511C21.0167 21.511 19.8907 22.637 19.8907 24.0209C19.8907 24.4244 19.5637 24.7514 19.1603 24.7514C18.7568 24.7514 18.4298 24.4244 18.4298 24.0209C18.4298 21.8314 20.2111 20.05 22.4007 20.05C24.5902 20.05 26.3716 21.8314 26.3716 24.0209C26.3716 24.4244 26.0445 24.7514 25.6411 24.7514Z" fill="#55C4FC"/>
<path id="Vector_5" d="M22.4007 34C20.9087 34 19.5029 33.4047 18.4423 32.3237C17.3895 31.2506 16.8096 29.8364 16.8096 28.3414V24.561C16.8096 24.1575 17.1367 23.8305 17.5401 23.8305H33.2695C33.6729 23.8305 34 24.1575 34 24.561V28.3414C34 28.7448 33.6729 29.0719 33.2695 29.0719H27.9451C27.7881 30.2927 27.2386 31.4273 26.359 32.3237C25.2985 33.4047 23.8927 34 22.4007 34ZM18.2705 25.2914V28.3414C18.2705 30.656 20.1233 32.5391 22.4007 32.5391C24.6781 32.5391 26.5308 30.656 26.5308 28.3414C26.5308 27.938 26.8579 27.6109 27.2613 27.6109H32.5391V25.2914H18.2705Z" fill="#55C4FC"/>
</g>
</g>
<defs>
<clipPath id="clip0_307_128">
<rect width="34" height="34" fill="white"/>
</clipPath>
</defs>
</svg>
