<svg width="34" height="34" viewBox="0 0 34 34" fill="none" xmlns="http://www.w3.org/2000/svg">
<g id="006-water" clip-path="url(#clip0_307_114)">
<g id="Group">
<g id="Group_2">
<path id="Vector" d="M23.0758 27.9242H10.9242C9.40472 27.9242 8.1685 26.688 8.1685 25.1685V23.1433C8.1685 22.3434 8.51116 21.6219 9.05735 21.1181C8.51116 20.6142 8.1685 19.8927 8.1685 19.0928V17.0675C8.1685 15.548 9.40472 14.3118 10.9242 14.3118H23.0758C24.5953 14.3118 25.8315 15.548 25.8315 17.0675V19.0928C25.8315 19.8927 25.4888 20.6142 24.9427 21.1181C25.4888 21.6219 25.8315 22.3434 25.8315 23.1433V25.1685C25.8315 26.688 24.5953 27.9242 23.0758 27.9242ZM11.6547 21.1181C11.6547 21.5215 11.3276 21.8485 10.9242 21.8485C10.2103 21.8485 9.62944 22.4294 9.62944 23.1433V25.1685C9.62944 25.8824 10.2103 26.4633 10.9242 26.4633H23.0758C23.7897 26.4633 24.3706 25.8824 24.3706 25.1685V23.1433C24.3706 22.4294 23.7897 21.8485 23.0758 21.8485C22.1066 21.8099 22.1073 20.4258 23.0758 20.3876C23.7897 20.3876 24.3706 19.8067 24.3706 19.0928V17.0675C24.3706 16.3536 23.7897 15.7727 23.0758 15.7727H10.9242C10.2103 15.7727 9.62944 16.3536 9.62944 17.0675V19.0928C9.62944 19.8067 10.2103 20.3876 10.9242 20.3876C11.3276 20.3876 11.6547 20.7146 11.6547 21.1181Z" fill="#55C4FC"/>
</g>
<path id="Vector_2" d="M24.3706 29.219V31.2443C24.3706 31.9582 23.7897 32.5391 23.0758 32.5391H10.9242C10.2103 32.5391 9.62944 31.9582 9.62944 31.2443V29.219C9.62944 28.5051 10.2103 27.9242 10.9242 27.9242C10.2051 27.9242 9.54968 27.647 9.05848 27.1943C8.51202 27.6982 8.1685 28.4189 8.1685 29.219V31.2443C8.1685 32.7638 9.40472 34 10.9242 34H23.0758C24.5953 34 25.8315 32.7638 25.8315 31.2443V29.219C25.8315 28.4188 25.4874 27.6986 24.9409 27.1949C24.4497 27.6473 23.7946 27.9242 23.0758 27.9242C23.7897 27.9242 24.3706 28.5051 24.3706 29.219Z" fill="#55C4FC"/>
<path id="Vector_3" d="M23.0758 8.23597C21.4961 8.23597 20.1715 7.12672 19.8377 5.64646H21.0505C21.4539 5.64646 21.781 5.31941 21.781 4.91599V0.730469C21.781 0.327051 21.4539 0 21.0505 0H12.9495C12.5461 0 12.219 0.327051 12.219 0.730469V4.91599C12.219 5.31941 12.5461 5.64646 12.9495 5.64646H14.1623C13.8285 7.12672 12.504 8.23597 10.9242 8.23597C9.40472 8.23597 8.1685 9.47219 8.1685 10.9917V13.017C8.1685 13.8171 8.51169 14.5381 9.05814 15.0419C9.54942 14.5891 10.2049 14.3117 10.9242 14.3117C10.2103 14.3117 9.62944 13.7309 9.62944 13.017V10.9917C9.62944 10.2778 10.2103 9.69691 10.9242 9.69691C13.3122 9.69691 15.2969 7.93727 15.6495 5.64646H18.3505C18.7032 7.93727 20.6878 9.69691 23.0758 9.69691C23.7897 9.69691 24.3706 10.2778 24.3706 10.9917V13.017C24.3706 13.7309 23.7897 14.3117 23.0758 14.3117C23.7952 14.3117 24.4507 14.5891 24.942 15.0421C25.4885 14.5384 25.8315 13.8171 25.8315 13.017V10.9917C25.8315 9.47225 24.5953 8.23597 23.0758 8.23597ZM13.68 1.46094H20.32V4.18552H13.68V1.46094Z" fill="#55C4FC"/>
</g>
</g>
<defs>
<clipPath id="clip0_307_114">
<rect width="34" height="34" fill="white"/>
</clipPath>
</defs>
</svg>
