<svg width="34" height="34" viewBox="0 0 34 34" fill="none" xmlns="http://www.w3.org/2000/svg">
<g id="007-infused-water">
<g id="Group">
<g id="Group_2">
<path id="Vector" d="M23.6712 24.5609C23.6712 24.3251 23.5573 24.1037 23.3654 23.9665L20.0599 21.6055C20.8045 20.8794 21.821 20.4308 22.9408 20.4308C23.3443 20.4308 23.6713 20.1038 23.6713 19.7003C23.6713 19.2969 23.3443 18.9699 22.9408 18.9699C21.0937 18.9699 19.4536 19.8708 18.435 21.2556C18.4197 21.2733 18.4049 21.2917 18.3911 21.3111C18.3763 21.3317 18.3629 21.3528 18.3506 21.3743C17.7205 22.2791 17.3498 23.3773 17.3498 24.5609C17.3498 25.7446 17.7205 26.8427 18.3506 27.7474C18.3629 27.769 18.3763 27.7901 18.3911 27.8107C18.4026 27.8267 18.4154 27.8411 18.4279 27.856C19.4459 29.2466 21.0893 30.152 22.9409 30.152C23.3443 30.152 23.6714 29.8249 23.6714 29.4215C23.6714 29.0181 23.3443 28.691 22.9409 28.691C21.8212 28.691 20.8047 28.2424 20.0599 27.5164L23.3654 25.1553C23.5573 25.0182 23.6712 24.7968 23.6712 24.5609ZM19.2089 26.3288C18.9539 25.7926 18.8106 25.1932 18.8106 24.5609C18.8106 23.9287 18.9538 23.3293 19.2089 22.7931L21.684 24.5609L19.2089 26.3288Z" fill="#55C4FC"/>
<path id="Vector_2" d="M14.841 29.6119C14.4376 29.6119 14.1102 29.2849 14.1102 28.8815C14.1102 28.4781 14.4369 28.151 14.8403 28.151H14.841C15.2444 28.151 15.5715 28.4781 15.5715 28.8815C15.5715 29.285 15.2445 29.6119 14.841 29.6119Z" fill="#55C4FC"/>
<path id="Vector_3" d="M12.1407 24.2113C11.7373 24.2113 11.4099 23.8842 11.4099 23.4808C11.4099 23.0774 11.7366 22.7503 12.14 22.7503H12.1407C12.5441 22.7503 12.8711 23.0774 12.8711 23.4808C12.8711 23.8842 12.5441 24.2113 12.1407 24.2113Z" fill="#55C4FC"/>
<path id="Vector_4" d="M15.0423 19.3506H13.7596C13.3562 19.3506 13.0291 19.0236 13.0291 18.6202V17.3375C13.0291 15.2596 14.7196 13.5692 16.7975 13.5692H18.0801C18.4835 13.5692 18.8106 13.8962 18.8106 14.2997V15.5823C18.8106 17.6602 17.1201 19.3506 15.0423 19.3506ZM14.49 17.8897H15.0423C16.3146 17.8897 17.3497 16.8546 17.3497 15.5823V15.0301H16.7975C15.5253 15.0301 14.4901 16.0652 14.4901 17.3375L14.49 17.8897Z" fill="#55C4FC"/>
<path id="Vector_5" d="M7.27879 9.08942H4.91599C2.83814 9.08942 1.14763 7.39892 1.14763 5.32106V4.03836C1.14763 3.63494 1.47468 3.30789 1.8781 3.30789H4.2409C6.31875 3.30789 8.00926 4.99833 8.00926 7.07625V8.35888C8.00926 8.76237 7.68227 9.08942 7.27879 9.08942ZM2.60857 4.76883V5.321C2.60857 6.59334 3.64371 7.62842 4.91599 7.62842H6.54832V7.07625C6.54832 5.80397 5.51318 4.76883 4.2409 4.76883H2.60857Z" fill="#55C4FC"/>
<path id="Vector_6" d="M29.084 28.5318H26.7212C26.3178 28.5318 25.9907 28.2048 25.9907 27.8014V26.5187C25.9907 24.4408 27.6812 22.7503 29.7591 22.7503H32.1219C32.5253 22.7503 32.8524 23.0774 32.8524 23.4808V24.7634C32.8524 26.8413 31.1619 28.5318 29.084 28.5318ZM27.4517 27.0709H29.084C30.3563 27.0709 31.3914 26.0358 31.3914 24.7635V24.2113H29.7591C28.4868 24.2113 27.4517 25.2464 27.4517 26.5187V27.0709Z" fill="#55C4FC"/>
</g>
<path id="Vector_7" d="M21.2187 11.0149C20.2344 10.2767 19.584 9.17064 19.4025 7.96722C19.6867 7.86721 19.8907 7.59714 19.8907 7.27879V0.730469C19.8907 0.327051 19.5637 0 19.1603 0H12.6794C12.276 0 11.9489 0.327051 11.9489 0.730469V7.27879C11.9489 7.59714 12.153 7.86721 12.4372 7.96722C12.2557 9.17064 11.6052 10.2767 10.6209 11.0149C9.08524 12.1667 8.16843 14.0002 8.16843 15.9198V31.2443C8.16843 32.7638 9.40465 34 10.9242 34H20.9154C22.435 34 23.6712 32.7638 23.6712 31.2443V15.9198C23.6712 14.0003 22.7544 12.1667 21.2187 11.0149ZM13.4099 1.46094H18.4299V6.54832H13.4099V1.46094ZM22.2103 31.2443C22.2103 31.9582 21.6294 32.5391 20.9155 32.5391H10.9242C10.2103 32.5391 9.62944 31.9582 9.62944 31.2443V15.9198C9.62944 14.4577 10.3278 13.061 11.4975 12.1837C12.8369 11.1792 13.7053 9.65587 13.9055 8.00919H17.9343C18.1344 9.6558 19.0028 11.1792 20.3423 12.1837C21.512 13.0609 22.2104 14.4576 22.2104 15.9198V31.2443H22.2103Z" fill="#55C4FC"/>
</g>
</g>
</svg>
