<svg width="158" height="91" viewBox="0 0 158 91" fill="none" xmlns="http://www.w3.org/2000/svg">
<g id="logo 1" clip-path="url(#clip0_304_302)">
<g id="Clip path group">
<mask id="mask0_304_302" style="mask-type:luminance" maskUnits="userSpaceOnUse" x="0" y="0" width="158" height="91">
<g id="clip0">
<path id="Vector" d="M158 0H0V91H158V0Z" fill="white"/>
</g>
</mask>
<g mask="url(#mask0_304_302)">
<g id="Group">
<path id="Vector_2" d="M43.2148 72.1826V68.4329H29.4905V91H43.2148V87.2731H33.6645V81.374H42.4435V77.6473H33.6645V72.1826H43.2148ZM144.911 87.2731V68.4329H140.737V91H153.736V87.2731H144.911ZM84.7962 72.1826V68.4329H71.0491V91H84.7962V87.2731H75.2458V81.374H84.0021V77.6473H75.2458V72.1826H84.7962ZM61.8618 68.4329V85.4897L53.3322 68.4329H47.7518V91H51.9257V73.9204L60.546 91H66.0584V68.4329H61.8618ZM133.569 91H137.924L130.892 68.4329H124.994L117.961 91H122.317L123.678 86.4271H132.253L133.569 91ZM124.767 82.6773L127.92 71.9311L131.096 82.6773H124.767ZM113.855 68.4329L109.523 86.1984L105.553 68.4329H99.9496L95.957 86.1984L91.6242 68.4329H87.4276L93.008 91H98.7246L102.74 72.7771L106.755 91H112.494L118.029 68.4329H113.855ZM20.961 91H26.133L20.4164 83.0204C21.4269 82.6536 22.296 81.9737 22.8992 81.0783C23.5024 80.1828 23.8086 79.1177 23.7739 78.0358V74.4462C23.7739 70.1706 21.6869 68.5015 16.9684 68.4558H7.62225V91H11.8189V83.592H15.8796L20.961 91ZM11.887 72.1826H16.9004C17.2656 72.0826 17.6498 72.0764 18.018 72.1644C18.3862 72.2523 18.7269 72.4318 19.0087 72.6863C19.2906 72.9408 19.5047 73.2624 19.6317 73.6217C19.7587 73.981 19.7947 74.3666 19.736 74.7435V77.2813C19.7947 77.6582 19.7587 78.0439 19.6317 78.4032C19.5047 78.7625 19.2906 79.084 19.0087 79.3385C18.7269 79.593 18.3862 79.7724 18.018 79.8604C17.6498 79.9484 17.2656 79.9421 16.9004 79.8422H11.8189V72.1826H11.887Z" fill="#4A555A"/>
<path id="Vector_3" d="M80.6674 1.44923e-05C80.3651 -0.0174202 80.0622 -0.0174202 79.76 1.44923e-05H24.6358C21.3392 -0.100847 18.0561 0.466493 14.981 1.66839C11.906 2.8703 9.10176 4.68229 6.73452 6.99694C4.36727 9.31159 2.48525 12.0817 1.20002 15.1432C-0.0851936 18.2046 -0.747437 21.495 -0.747437 24.8192C-0.747437 28.1434 -0.0851936 31.4339 1.20002 34.4952C2.48525 37.5568 4.36727 40.3268 6.73452 42.6416C9.10176 44.9561 11.906 46.7681 14.981 47.9701C18.0561 49.172 21.3392 49.7393 24.6358 49.6384H66.2172L80.6674 1.44923e-05Z" fill="url(#paint0_linear_304_302)"/>
<path id="Vector_4" d="M133.387 1.92812e-05H92.2366L77.7864 49.6384H133.387C136.684 49.7393 139.967 49.172 143.042 47.9701C146.117 46.7681 148.921 44.9562 151.289 42.6416C153.656 40.3268 155.538 37.5567 156.823 34.4953C158.108 31.4339 158.77 28.1435 158.77 24.8192C158.77 21.495 158.108 18.2046 156.823 15.1432C155.538 12.0818 153.656 9.31159 151.289 6.99694C148.921 4.6823 146.117 2.8703 143.042 1.66841C139.967 0.466499 136.684 -0.100842 133.387 1.92812e-05Z" fill="url(#paint1_linear_304_302)"/>
<path id="Vector_5" d="M134.453 5.62463H90.5806L86.2025 20.5779H141.939C146.442 20.5481 150.851 21.8781 154.598 24.3962C154.128 19.314 151.811 14.5861 148.093 11.1211C144.375 7.65612 139.517 5.69854 134.453 5.62463Z" fill="#F0F5E3"/>
<path id="Vector_6" d="M79.0567 5.62463H24.2276C19.1639 5.69854 14.3062 7.65612 10.5878 11.1211C6.86941 14.5861 4.55286 19.314 4.08334 24.3962C7.82159 21.8786 12.2229 20.5486 16.7188 20.5779H74.7013L79.0567 5.62463Z" fill="#E9F6FD"/>
<path id="Vector_7" d="M69.0073 40.104H17.7169C14.4595 40.1023 11.2301 39.4978 8.1893 38.3206C10.1591 40.7926 12.6519 42.7897 15.4855 44.1664C18.3191 45.5431 21.4221 46.2643 24.5678 46.2774H67.2153L69.0073 40.104Z" fill="#5FC6F1"/>
<path id="Vector_8" d="M140.964 40.1041H80.5539L78.7392 46.3002H134.136C137.278 46.2854 140.377 45.5633 143.206 44.1866C146.036 42.8099 148.525 40.8137 150.491 38.3435C147.45 39.515 144.22 40.1118 140.964 40.1041Z" fill="#C5D985"/>
</g>
</g>
</g>
</g>
<defs>
<linearGradient id="paint0_linear_304_302" x1="39.4633" y1="-1.44752" x2="39.4633" y2="51.0906" gradientUnits="userSpaceOnUse">
<stop stop-color="#D1ECFB"/>
<stop offset="0.24" stop-color="#69C6EF"/>
<stop offset="1" stop-color="#00A0E3"/>
</linearGradient>
<linearGradient id="paint1_linear_304_302" x1="121.55" y1="-1.44752" x2="121.55" y2="51.0906" gradientUnits="userSpaceOnUse">
<stop stop-color="#E2ECC5"/>
<stop offset="0.24" stop-color="#BCD778"/>
<stop offset="1" stop-color="#96C22B"/>
</linearGradient>
<clipPath id="clip0_304_302">
<rect width="158" height="91" fill="white"/>
</clipPath>
</defs>
</svg>
