<svg width="34" height="34" viewBox="0 0 34 34" fill="none" xmlns="http://www.w3.org/2000/svg">
<g id="001-eye-drops" clip-path="url(#clip0_307_78)">
<g id="Group">
<g id="Group_2">
<path id="Vector" d="M15.3797 8.38399L12.7888 0.502363C12.6903 0.202605 12.4105 0 12.095 0H10.6064C10.2909 0 10.0111 0.202539 9.91252 0.50223L7.31995 8.38399C6.02769 8.41102 4.98451 9.46993 4.98451 10.7686V13.4271H6.44545V10.7686C6.44545 10.2586 6.86042 9.84366 7.37042 9.84366H15.3311C15.8411 9.84366 16.256 10.2586 16.256 10.7686V13.4335H17.717V10.7686C17.7168 9.4694 16.6728 8.41009 15.3797 8.38399ZM11.1351 1.46094H11.5662L13.8415 8.38273H8.85825L11.1351 1.46094Z" fill="#55C4FC"/>
<path id="Vector_2" d="M25.3853 17.729C24.5719 17.729 23.7587 17.4195 23.1395 16.8003C21.9823 15.6431 21.8899 13.8142 22.9246 12.5463L24.8194 10.2242C24.9581 10.0542 25.1659 9.95556 25.3853 9.95556C25.6048 9.95556 25.8126 10.0542 25.9512 10.2242L27.8461 12.5463C28.8808 13.8143 28.7884 15.6431 27.6312 16.8003C27.0121 17.4194 26.1985 17.729 25.3853 17.729ZM25.3853 11.8414L24.0564 13.4698C23.4977 14.1546 23.5475 15.1422 24.1724 15.7671C24.8325 16.4272 25.9396 16.4258 26.5981 15.7672C27.223 15.1423 27.2729 14.1546 26.7142 13.4699L25.3853 11.8414Z" fill="#55C4FC"/>
<path id="Vector_3" d="M29.6016 9.89048C28.9325 9.89048 28.2635 9.63581 27.7541 9.12654C26.8022 8.17454 26.7262 6.67011 27.5773 5.62713L29.0357 3.84001C29.1745 3.67001 29.3823 3.57139 29.6016 3.57139C29.8211 3.57139 30.0289 3.67001 30.1676 3.84001L31.6259 5.62713C32.477 6.67011 32.4011 8.17454 31.4491 9.12654C30.9397 9.63588 30.2707 9.89048 29.6016 9.89048ZM29.6016 5.4572L28.7091 6.55084C28.3339 7.01064 28.3675 7.67384 28.7871 8.09353C29.2362 8.54257 29.9669 8.5425 30.4161 8.09353C30.8357 7.67384 30.8692 7.01064 30.494 6.55084L29.6016 5.4572Z" fill="#55C4FC"/>
<path id="Vector_4" d="M10.0977 29.0839H2.51347C2.11006 29.0839 1.783 28.7569 1.783 28.3535C1.783 27.9501 2.11006 27.623 2.51347 27.623H9.36726V18.9423H2.51527C2.11185 18.9423 1.7848 18.6153 1.7848 18.2118C1.7848 17.8084 2.11185 17.4814 2.51527 17.4814H10.0977C10.5011 17.4814 10.8282 17.8084 10.8282 18.2118V28.3535C10.8282 28.7569 10.5011 29.0839 10.0977 29.0839Z" fill="#55C4FC"/>
</g>
<g id="Group_3">
<path id="Vector_5" d="M20.1753 30.4463C17.3585 30.4463 15.0669 28.1547 15.0669 25.3378C15.0669 22.521 17.3585 20.2294 20.1753 20.2294C22.9922 20.2294 25.2838 22.521 25.2838 25.3378C25.2838 28.1547 22.9922 30.4463 20.1753 30.4463ZM20.1753 21.6904C18.1641 21.6904 16.5278 23.3267 16.5278 25.3379C16.5278 27.3491 18.1641 28.9854 20.1753 28.9854C22.1866 28.9854 23.8228 27.3491 23.8228 25.3379C23.8228 23.3267 22.1866 21.6904 20.1753 21.6904Z" fill="#55C4FC"/>
<path id="Vector_6" d="M20.1753 27.6854C18.881 27.6854 17.8278 26.6323 17.8278 25.3379C17.8278 24.0435 18.8809 22.9904 20.1753 22.9904C21.4697 22.9904 22.5228 24.0434 22.5228 25.3379C22.5228 26.6323 21.4697 27.6854 20.1753 27.6854ZM20.1753 24.4513C19.6865 24.4513 19.2888 24.849 19.2888 25.3379C19.2888 25.8268 19.6865 26.2244 20.1753 26.2244C20.6642 26.2244 21.0619 25.8267 21.0619 25.3379C21.0619 24.8491 20.6642 24.4513 20.1753 24.4513Z" fill="#55C4FC"/>
</g>
<path id="Vector_7" d="M1.7854 29.0289C1.7854 31.7699 4.01546 34 6.75651 34H15.9131C17.0847 34 18.2271 33.5724 19.1299 32.7961C19.8594 32.1689 20.3943 31.3488 20.6741 30.4443C23.716 30.2722 26.502 28.5325 28.2 25.7149C28.3397 25.4829 28.3397 25.1927 28.2 24.9608C26.5412 22.2082 23.8439 20.4845 20.8841 20.2458V17.5364C20.8841 14.7954 18.6541 12.5653 15.9131 12.5653H6.75651C4.01546 12.5653 1.7854 14.7953 1.7854 17.5364V29.0289ZM15.913 32.5391H6.75651C4.82096 32.5391 3.24634 30.9644 3.24634 29.0289V25.5587H6.82623C7.22965 25.5587 7.5567 25.2317 7.5567 24.8282C7.5567 24.4248 7.22965 24.0978 6.82623 24.0978H3.24634V22.4676H6.82623C7.22965 22.4676 7.5567 22.1405 7.5567 21.7371C7.5567 21.3337 7.22965 21.0066 6.82623 21.0066H3.24634V17.5364C3.24634 15.601 4.82096 14.0263 6.75651 14.0263H15.9131C17.8485 14.0263 19.4232 15.6009 19.4232 17.5364V20.2496C16.4804 20.5016 13.8015 22.2217 12.1508 24.9609C12.011 25.1929 12.011 25.4831 12.1508 25.715C13.7474 28.3644 16.3061 30.0604 19.1349 30.3968C18.577 31.6602 17.3095 32.5391 15.913 32.5391ZM20.1754 28.9987C17.5958 28.9987 15.1833 27.6384 13.6417 25.3379C15.1833 23.0373 17.5958 21.6771 20.1754 21.6771C22.7549 21.6771 25.1675 23.0374 26.709 25.3379C25.1675 27.6384 22.7549 28.9987 20.1754 28.9987Z" fill="#55C4FC"/>
</g>
</g>
<defs>
<clipPath id="clip0_307_78">
<rect width="34" height="34" fill="white"/>
</clipPath>
</defs>
</svg>
