<svg width="34" height="34" viewBox="0 0 34 34" fill="none" xmlns="http://www.w3.org/2000/svg">
<g id="001-syringe 1" clip-path="url(#clip0_307_124)">
<g id="Group">
<path id="Vector" d="M22.0338 20.8324C21.8469 20.8324 21.6599 20.7611 21.5173 20.6184L13.2691 12.3703C12.9839 12.085 12.9839 11.6225 13.2691 11.3372C13.5544 11.0519 14.0169 11.0519 14.3022 11.3372L22.5503 19.5853C22.8355 19.8706 22.8355 20.3331 22.5503 20.6184C22.4077 20.7611 22.2207 20.8324 22.0338 20.8324Z" fill="#55C4FC"/>
<path id="Vector_2" d="M33.786 6.72038L27.3325 0.266821C27.0472 -0.0184602 26.5847 -0.0183938 26.2995 0.266821C26.0142 0.552102 26.0142 1.01462 26.2995 1.2999L27.3519 2.35231L22.1361 7.56819L16.9255 2.35762C16.6402 2.07234 16.1777 2.07234 15.8924 2.35762C15.6072 2.6429 15.6072 3.10542 15.8924 3.3907L18.4761 5.97437L4.39284 20.0575C4.25591 20.1945 4.17888 20.3803 4.17888 20.5741C4.17888 20.7678 4.25584 20.9536 4.39284 21.0906L6.2038 22.9015L3.758 25.3473C3.62107 25.4843 3.54403 25.6701 3.54403 25.8638C3.54403 26.0575 3.621 26.2433 3.758 26.3803L5.14575 27.768L0.213961 32.7001C-0.0712541 32.9854 -0.0712541 33.4479 0.213961 33.7332C0.356601 33.8758 0.543535 33.9471 0.730469 33.9471C0.917402 33.9471 1.10434 33.8758 1.24698 33.7332L6.1789 28.8013L7.61959 30.2419C7.76223 30.3846 7.94916 30.4559 8.13609 30.4559C8.32303 30.4559 8.50996 30.3846 8.6526 30.2419L11.0983 27.7961L12.8035 29.5013C13.0888 29.7866 13.5513 29.7866 13.8366 29.5013L27.9198 15.4181L30.5265 18.0247C30.6691 18.1674 30.8561 18.2387 31.043 18.2387C31.2299 18.2387 31.4169 18.1674 31.5595 18.0247C31.8447 17.7394 31.8447 17.2769 31.5595 16.9916L26.326 11.7581L31.5418 6.54221L32.753 7.75333C32.8956 7.89597 33.0825 7.96729 33.2695 7.96729C33.4564 7.96729 33.6433 7.89597 33.786 7.75333C34.0713 7.46818 34.0713 7.00566 33.786 6.72038ZM8.13616 28.6923L5.30765 25.8638L7.23689 23.9346L10.0654 26.7631L8.13616 28.6923ZM26.8868 14.3851L13.3201 27.9518L5.94236 20.5741L7.90314 18.6133L9.38367 20.0938C9.52631 20.2364 9.71324 20.3078 9.90018 20.3078C10.0871 20.3078 10.274 20.2364 10.4167 20.0938C10.7019 19.8085 10.7019 19.346 10.4167 19.0607L8.93616 17.5802L10.9261 15.5903L12.4066 17.0708C12.5493 17.2134 12.7362 17.2847 12.9231 17.2847C13.1101 17.2847 13.297 17.2134 13.4396 17.0708C13.7248 16.7855 13.7248 16.323 13.4396 16.0377L11.9591 14.5572L16.4385 10.0778L17.919 11.5583C18.0616 11.701 18.2486 11.7723 18.4355 11.7723C18.6224 11.7723 18.8094 11.701 18.952 11.5583C19.2372 11.2731 19.2372 10.8105 18.952 10.5253L17.4715 9.04473L19.509 7.00719L26.8868 14.3851ZM25.293 10.7251L23.1691 8.60127L28.385 3.38539L30.5088 5.50933L25.293 10.7251Z" fill="#55C4FC"/>
</g>
</g>
<defs>
<clipPath id="clip0_307_124">
<rect width="34" height="34" fill="white"/>
</clipPath>
</defs>
</svg>
