<svg width="34" height="34" viewBox="0 0 34 34" fill="none" xmlns="http://www.w3.org/2000/svg">
<g id="002-nasal-spray" clip-path="url(#clip0_307_89)">
<g id="Group">
<g id="Group_2">
<path id="Vector" d="M22.977 11.1536C22.6758 10.9797 22.5336 10.6098 22.6566 10.2716L25.301 3.00279C25.5019 2.45062 25.2784 1.83659 24.7695 1.54277C24.2606 1.24896 23.6171 1.36242 23.2394 1.81253L18.2666 7.73714C18.0072 8.04612 17.5468 8.08653 17.2374 7.827C16.9285 7.56765 16.8882 7.10686 17.1475 6.7979L22.1203 0.873287C22.9546 -0.120816 24.376 -0.371359 25.5 0.277563C26.624 0.926518 27.1177 2.28276 26.674 3.50234L24.0295 10.7711C23.8916 11.1502 23.4725 11.3457 23.0933 11.2078C23.0523 11.1929 23.0135 11.1747 22.977 11.1536Z" fill="#55C4FC"/>
<path id="Vector_2" d="M21.1666 25.1374L6.13743 16.4603C5.78806 16.2586 5.66835 15.8118 5.87006 15.4625C6.07177 15.1131 6.51852 14.9934 6.8679 15.1951L21.897 23.8722C22.2464 24.0739 22.3661 24.5206 22.1644 24.87C21.9627 25.2194 21.516 25.3391 21.1666 25.1374Z" fill="#55C4FC"/>
<path id="Vector_3" d="M18.1839 30.3037L3.15467 21.6266C2.8053 21.4249 2.68559 20.9781 2.8873 20.6288C3.08901 20.2794 3.53577 20.1597 3.88514 20.3614L18.9143 29.0385C19.2636 29.2402 19.3833 29.6869 19.1816 30.0363C18.9799 30.3857 18.5332 30.5054 18.1839 30.3037Z" fill="#55C4FC"/>
</g>
<path id="Vector_4" d="M24.0663 20.1149L19.5327 17.4974L20.9715 15.0054L23.1569 16.2671C23.5062 16.4688 23.953 16.3491 24.1547 15.9997L26.324 12.2424C26.5257 11.8931 26.406 11.4463 26.0566 11.2446L15.724 5.2791C15.3747 5.07739 14.9279 5.1971 14.7262 5.54647L12.5569 9.30374C12.3552 9.65311 12.4749 10.0999 12.8243 10.3016L15.0097 11.5633L13.5709 14.0554L9.03722 11.4379C8.68785 11.2361 8.24109 11.3559 8.03938 11.7052L0.71809 24.3861C0.516381 24.7354 0.63609 25.1822 0.98546 25.3839L16.0146 34.061C16.364 34.2627 16.8107 34.143 17.0124 33.7936L24.3337 21.1128C24.5354 20.7634 24.4157 20.3166 24.0663 20.1149ZM15.6262 6.90949L24.6935 12.1445L23.2548 14.6366L14.1874 9.40155L15.6262 6.90949ZM16.2749 12.2938L19.7063 14.2749L18.2675 16.767L14.8361 14.7858L16.2749 12.2938ZM16.1125 32.4305L2.34848 24.4839L8.9393 13.0683L22.7032 21.0149L16.1124 32.4305L16.1125 32.4305Z" fill="#55C4FC"/>
</g>
</g>
<defs>
<clipPath id="clip0_307_89">
<rect width="34" height="34" fill="white"/>
</clipPath>
</defs>
</svg>
