<svg width="34" height="34" viewBox="0 0 34 34" fill="none" xmlns="http://www.w3.org/2000/svg">
<g id="capsules 1">
<path id="Vector" d="M31 16.732C31 16.6783 31 16.6783 31 16.6247C31 16.5711 31 16.4638 31 16.4101C31 16.3565 31 16.3029 31 16.3029C31 16.2492 31 16.1419 31 16.0883C31 16.0347 31 15.981 31 15.981C31 15.9274 31 15.8201 31 15.7665C31 15.7128 31 15.7128 31 15.6592C31 15.5519 31 15.4983 30.9468 15.391V15.3374C30.9468 15.2301 30.8935 15.1228 30.8935 15.0155C30.8935 14.9619 30.8935 14.9619 30.8935 14.9082C30.8935 14.8546 30.8935 14.7473 30.8403 14.6937C30.8403 14.64 30.8403 14.64 30.8403 14.5864C30.8403 14.5328 30.8403 14.4255 30.7871 14.3718C30.7871 14.3182 30.7871 14.2646 30.7871 14.2646C30.7871 14.2109 30.7338 14.1037 30.7338 14.05C30.7338 13.9964 30.7338 13.9964 30.6806 13.9427C30.6806 13.8891 30.6274 13.7818 30.6274 13.7282C30.6274 13.6745 30.6274 13.6745 30.6274 13.6209C30.5741 13.5136 30.5741 13.4063 30.5209 13.2991V13.2454C30.5209 13.1381 30.4677 13.0845 30.4677 12.9772C30.4677 12.9236 30.4677 12.9236 30.4144 12.87C30.4144 12.8163 30.3612 12.709 30.3612 12.6554C30.3612 12.6018 30.3612 12.6018 30.308 12.5481C30.308 12.4945 30.2548 12.4408 30.2548 12.3336C30.2548 12.2799 30.2015 12.2799 30.2015 12.2263C30.2015 12.1726 30.1483 12.119 30.1483 12.0117C30.1483 11.9581 30.0951 11.9581 30.0951 11.9044C30.0418 11.8508 30.0418 11.7435 29.9886 11.6899V11.6362C29.9354 11.529 29.8821 11.4217 29.8821 11.3681C29.8821 11.3144 29.8289 11.3144 29.8289 11.2608C29.7757 11.2071 29.7757 11.1535 29.7224 11.0462C29.7224 10.9926 29.6692 10.9926 29.6692 10.9389C29.616 10.8853 29.616 10.8317 29.5627 10.778C29.5627 10.7244 29.5095 10.7244 29.5095 10.6707C29.4563 10.6171 29.4563 10.5635 29.403 10.5098C29.403 10.4562 29.3498 10.4562 29.3498 10.4025C29.2966 10.3489 29.2966 10.2953 29.2433 10.188C29.2433 10.1344 29.1901 10.1344 29.1901 10.0807C29.1369 9.97343 29.0837 9.9198 29.0304 9.81252C29.0304 9.81252 29.0304 9.75888 28.9772 9.75888C28.924 9.70524 28.8707 9.59796 28.8707 9.54432C28.8707 9.49068 28.8175 9.49068 28.8175 9.43704C28.7643 9.3834 28.7643 9.32976 28.711 9.27612C28.711 9.22249 28.6578 9.22249 28.6578 9.16885C28.6046 9.11521 28.6046 9.06157 28.5513 9.00793C28.5513 8.95429 28.4981 8.95429 28.4981 8.90065C28.4449 8.84701 28.4449 8.79337 28.3916 8.73973C28.3916 8.68609 28.3384 8.68609 28.3384 8.63245C28.2852 8.57881 28.2319 8.47154 28.1787 8.4179C28.1787 8.4179 28.1787 8.4179 28.1787 8.36426C27.4867 7.45239 26.6882 6.70144 25.8365 6.00413C25.8365 6.00413 25.8365 6.00413 25.7833 6.00413C25.73 5.95049 25.6236 5.89686 25.5703 5.84322C25.5171 5.84322 25.5171 5.78958 25.4639 5.78958C25.4106 5.73594 25.3574 5.6823 25.3042 5.6823C25.251 5.6823 25.251 5.62866 25.1977 5.62866C25.1445 5.57502 25.0913 5.57502 25.038 5.52138C24.9848 5.52138 24.9848 5.46774 24.9316 5.46774C24.8783 5.4141 24.8251 5.4141 24.7719 5.36046C24.7186 5.36046 24.7186 5.30682 24.6654 5.30682C24.4525 5.09227 24.3992 5.09227 24.2928 5.03863L24.2395 4.98499C24.1331 4.93135 24.0798 4.87771 23.9734 4.82407C23.9202 4.82407 23.9202 4.77043 23.8669 4.77043C23.8137 4.71679 23.7605 4.71679 23.7072 4.66315C23.654 4.66315 23.654 4.60951 23.6008 4.60951C23.5475 4.55588 23.4943 4.55588 23.4411 4.50224C23.3878 4.50224 23.3878 4.4486 23.3346 4.4486C23.2814 4.39496 23.2281 4.39496 23.1749 4.34132C23.1217 4.34132 23.1217 4.28768 23.0684 4.28768C23.0152 4.23404 22.962 4.23404 22.8555 4.1804C22.8023 4.1804 22.8023 4.12676 22.7491 4.12676C22.6426 4.07312 22.5361 4.01948 22.4829 4.01948C22.4829 4.01948 22.4297 4.01948 22.4297 3.96584C22.3232 4.01948 22.2167 3.96584 22.1635 3.9122C22.1103 3.9122 22.1103 3.85857 22.057 3.85857C22.0038 3.85857 21.9506 3.80493 21.8973 3.80493C21.8441 3.80493 21.7909 3.75129 21.7909 3.75129C21.7376 3.75129 21.6844 3.69765 21.6312 3.69765C21.5779 3.69765 21.5247 3.64401 21.5247 3.64401C21.4715 3.64401 21.4183 3.59037 21.3118 3.59037C21.2586 3.59037 21.2586 3.59037 21.2053 3.53673C21.0989 3.53673 21.0456 3.48309 20.9392 3.48309H20.8859C20.7795 3.42945 20.673 3.42945 20.5665 3.37581C20.5133 3.37581 20.5133 3.37581 20.4601 3.37581C20.4068 3.37581 20.3004 3.32217 20.2472 3.32217C20.1939 3.32217 20.1407 3.32217 20.1407 3.26853C20.0875 3.26853 20.0342 3.2149 19.9278 3.2149C19.8745 3.2149 19.8213 3.2149 19.8213 3.2149C19.7681 3.2149 19.6616 3.2149 19.6084 3.16126C19.5551 3.16126 19.5019 3.16126 19.5019 3.16126C19.4487 3.16126 19.3422 3.16126 19.289 3.10762C19.2357 3.10762 19.2357 3.10762 19.1825 3.10762C19.076 3.10762 18.9696 3.05398 18.8631 3.05398H18.8099C18.7034 3.05398 18.6502 3.05398 18.5437 3.00034C18.4905 3.00034 18.4905 3.00034 18.4373 3.00034C18.384 3.00034 18.2776 3.00034 18.2243 3.00034C18.1711 3.00034 18.1179 3.00034 18.1179 3.00034C18.0646 3.00034 17.9582 3.00034 17.9049 3.00034C17.8517 3.00034 17.7985 3.00034 17.7985 3.00034C17.7452 3.00034 17.6388 3.00034 17.5856 3.00034C17.5323 3.00034 17.5323 3.00034 17.4791 3.00034C17.3726 3.00034 17.2662 3.00034 17.1597 3.00034C9.28137 2.9467 3 9.27612 3 17.0538C3 17.1611 3 17.2684 3 17.3756C3 17.4293 3 17.4293 3 17.4829C3 17.5366 3 17.6438 3 17.6975C3 17.7511 3 17.8048 3 17.8048C3 17.8584 3 17.9657 3 18.0193C3 18.073 3 18.1266 3 18.1266C3 18.1802 3 18.2875 3 18.3411C3 18.3948 3 18.3948 3 18.4484C3 18.5557 3 18.6093 3.05323 18.7166V18.7703C3.05323 18.8775 3.10646 18.9848 3.10646 19.0921C3.10646 19.1457 3.10646 19.1457 3.10646 19.1994C3.10646 19.253 3.10646 19.3603 3.1597 19.4139C3.1597 19.4676 3.1597 19.4676 3.1597 19.5212C3.1597 19.5749 3.1597 19.6821 3.21293 19.7358C3.21293 19.7894 3.21293 19.843 3.21293 19.843C3.21293 19.8967 3.26616 20.004 3.26616 20.0576C3.26616 20.1112 3.26616 20.1112 3.31939 20.1649C3.31939 20.2185 3.37262 20.3258 3.37262 20.3794C3.37262 20.4331 3.37262 20.4331 3.37262 20.4867C3.42586 20.594 3.42586 20.7013 3.47909 20.8086V20.8622C3.47909 20.9695 3.53232 21.0231 3.53232 21.1304C3.53232 21.184 3.53232 21.184 3.58555 21.2377C3.58555 21.2913 3.63878 21.3986 3.63878 21.4522C3.63878 21.5059 3.63878 21.5059 3.69202 21.5595C3.69202 21.6131 3.74525 21.6668 3.74525 21.7741C3.74525 21.8277 3.79848 21.8277 3.79848 21.8813C3.79848 21.935 3.85171 21.9886 3.85171 22.0959C3.85171 22.1495 3.90494 22.1495 3.90494 22.2032C4.01141 22.3104 4.06464 22.4177 4.06464 22.4714V22.525C4.11787 22.6323 4.1711 22.7396 4.1711 22.7932C4.1711 22.8468 4.22433 22.8468 4.22433 22.9005C4.27757 22.9541 4.27757 23.0078 4.3308 23.115C4.3308 23.1687 4.38403 23.1687 4.38403 23.2223C4.43726 23.276 4.43726 23.3296 4.49049 23.3832C4.49049 23.4369 4.54373 23.4369 4.54373 23.4905C4.59696 23.5978 4.59696 23.6514 4.65019 23.7051C4.65019 23.7587 4.70342 23.7587 4.70342 23.8123C4.75665 23.866 4.75665 23.9196 4.80989 24.0269C4.80989 24.0805 4.86312 24.0805 4.86312 24.1342C4.91635 24.2415 4.96958 24.2951 5.02281 24.4024L5.07605 24.456C5.12928 24.5097 5.12928 24.5633 5.18251 24.6169C5.18251 24.6706 5.23574 24.6706 5.23574 24.7242C5.28897 24.7779 5.28897 24.8315 5.34221 24.8851C5.34221 24.9388 5.39544 24.9388 5.39544 24.9924C5.44867 25.046 5.44867 25.0997 5.5019 25.1533C5.5019 25.207 5.55513 25.207 5.55513 25.2606C5.60837 25.3142 5.60837 25.3679 5.6616 25.4215C5.6616 25.4752 5.71483 25.4752 5.71483 25.5288C5.76806 25.5824 5.82129 25.6897 5.87453 25.7434C5.87453 25.7434 5.87453 25.7434 5.87453 25.797C6.56654 26.7089 7.36502 27.4598 8.21673 28.1571C8.21673 28.1571 8.21673 28.1571 8.26996 28.1571C8.32319 28.2108 8.42966 28.2644 8.48289 28.318C8.53612 28.318 8.53612 28.3717 8.58935 28.3717C8.64259 28.4253 8.69582 28.479 8.74905 28.479C8.80228 28.479 8.80228 28.5326 8.85551 28.5326C8.90875 28.5862 8.96198 28.5862 9.01521 28.6399C9.06844 28.6399 9.06844 28.6935 9.12167 28.6935C9.17491 28.7472 9.22814 28.7472 9.28137 28.8008C9.3346 28.8008 9.3346 28.8544 9.38783 28.8544C9.44106 28.9081 9.54753 28.9617 9.60076 28.9617L9.65399 29.0153C9.76046 29.069 9.81369 29.1226 9.92015 29.1763C9.97338 29.1763 9.97338 29.2299 10.0266 29.2299C10.0798 29.2835 10.1331 29.2835 10.2395 29.3372C10.2928 29.3372 10.2928 29.3908 10.346 29.3908C10.3992 29.4445 10.4525 29.4445 10.5057 29.4981C10.5589 29.4981 10.5589 29.5517 10.6122 29.5517C10.6654 29.6054 10.7186 29.6054 10.7719 29.659C10.8251 29.659 10.8251 29.7127 10.8783 29.7127C10.9316 29.7663 10.9848 29.7663 11.0913 29.8199C11.1445 29.8199 11.1445 29.8736 11.1977 29.8736C11.3042 29.9272 11.4106 29.9809 11.4639 29.9809H11.5171C11.5703 30.0345 11.6768 30.0345 11.73 30.0881C11.7833 30.0881 11.7833 30.1418 11.8365 30.1418C11.8897 30.1418 11.943 30.1954 12.0494 30.1954C12.1027 30.1954 12.1027 30.2491 12.1559 30.2491C12.2091 30.2491 12.2624 30.3027 12.3688 30.3027C12.4221 30.3027 12.4221 30.3563 12.4753 30.3563C12.5285 30.3563 12.5817 30.41 12.6882 30.41C12.7414 30.41 12.7414 30.41 12.7947 30.4636C12.9011 30.5172 12.9544 30.5172 13.0608 30.5172H13.1141C13.2205 30.5709 13.327 30.5709 13.4335 30.6245C13.4867 30.6245 13.4867 30.6245 13.5399 30.6245C13.5932 30.6245 13.6996 30.6782 13.7529 30.6782C13.8061 30.6782 13.8061 30.6782 13.8593 30.7318C13.9125 30.7318 14.019 30.7854 14.0722 30.7854C14.1255 30.7854 14.1787 30.7854 14.1787 30.7854C14.2319 30.7854 14.3384 30.8391 14.3916 30.8391C14.4449 30.8391 14.4449 30.8391 14.4981 30.8391C14.5513 30.8391 14.6578 30.8927 14.711 30.8927C14.7643 30.8927 14.7643 30.8927 14.8175 30.8927C14.924 30.8927 15.0304 30.9464 15.1369 30.9464H15.1901C15.2966 30.9464 15.3498 30.9464 15.4563 31C15.5095 31 15.5095 31 15.5627 31C15.616 31 15.7224 31 15.7757 31C15.8289 31 15.8821 31 15.8821 31C15.9354 31 16.0418 31 16.0951 31C16.1483 31 16.2015 31 16.2015 31C16.2548 31 16.3612 31 16.4144 31C16.4677 31 16.4677 31 16.5209 31C16.6274 31 16.7338 31 16.8403 31C18.1711 31 19.4487 30.8391 20.673 30.4636C22.4297 29.9809 24.0798 29.1226 25.4639 27.9962C25.6236 27.8353 25.8365 27.728 25.9962 27.5671C26.2624 27.3525 26.4753 27.138 26.7414 26.8698C27.1141 26.4943 27.4867 26.0652 27.8593 25.5824C27.9125 25.4752 28.019 25.4215 28.0722 25.3142C28.2852 25.046 28.4449 24.7779 28.6578 24.456C28.7643 24.2415 28.8707 24.0805 29.0304 23.866C29.1369 23.6514 29.2433 23.4905 29.3498 23.276C29.5095 22.9541 29.6692 22.6859 29.7757 22.3641C29.8821 22.1495 29.9354 21.935 30.0418 21.7204C30.5741 20.2185 30.8935 18.5557 30.8935 16.8929C31 16.9465 31 16.8393 31 16.732ZM17.3726 4.66315C17.4259 4.66315 17.4791 4.66315 17.4791 4.66315C17.5323 4.66315 17.6388 4.66315 17.692 4.66315C17.7452 4.66315 17.7985 4.66315 17.8517 4.66315C17.9049 4.66315 18.0114 4.66315 18.0646 4.66315C18.2243 4.66315 18.384 4.71679 18.4905 4.71679C18.5437 4.71679 18.6502 4.71679 18.7034 4.77043C18.7567 4.77043 18.7567 4.77043 18.8099 4.77043C18.9164 4.77043 18.9696 4.77043 19.076 4.82407H19.1293C19.8745 4.98499 20.673 5.14591 21.365 5.46774H21.4183C21.4715 5.52138 21.5779 5.52138 21.6312 5.57502C21.6844 5.57502 21.6844 5.62866 21.7376 5.62866C21.7909 5.6823 21.8441 5.6823 21.9506 5.73594C22.057 5.78958 22.1635 5.84322 22.2167 5.89686C22.27 5.89686 22.27 5.95049 22.3232 5.95049C22.4297 6.00413 22.4829 6.05777 22.5894 6.05777C22.5894 6.05777 22.6426 6.05777 22.6426 6.11141C22.7491 6.16505 22.8555 6.21869 22.962 6.27233L6.24715 23.115C6.19392 23.0078 6.14068 22.9005 6.08745 22.7932C6.08745 22.7932 6.08745 22.7396 6.03422 22.7396C5.98099 22.6323 5.92776 22.5786 5.92776 22.4714C5.92776 22.4177 5.87453 22.4177 5.87453 22.3641C5.82129 22.2568 5.76806 22.1495 5.71483 22.0423C5.71483 21.9886 5.6616 21.935 5.6616 21.8813C5.6616 21.8277 5.60837 21.8277 5.60837 21.7741C5.55513 21.7204 5.55513 21.6131 5.5019 21.5595V21.5059C5.23574 20.7549 5.02281 20.004 4.86312 19.253V19.1994C4.86312 19.0921 4.80989 19.0385 4.80989 18.9312C4.80989 18.8775 4.80989 18.8775 4.80989 18.8239C4.80989 18.7703 4.80989 18.663 4.75665 18.6093C4.75665 18.6093 4.75665 18.6093 4.75665 18.5557C4.75665 18.3948 4.70342 18.2875 4.70342 18.1266C4.70342 18.073 4.70342 17.9657 4.70342 17.912C4.70342 17.8584 4.70342 17.8048 4.70342 17.7511C4.70342 17.6975 4.70342 17.5902 4.70342 17.5366C4.70342 17.4829 4.70342 17.4293 4.70342 17.4293C4.70342 17.322 4.70342 17.2147 4.70342 17.0538C4.70342 13.7282 5.98099 10.6171 8.32319 8.31062C8.85551 7.72059 9.4943 7.1842 10.1863 6.70144C10.346 6.59416 10.5057 6.48689 10.7186 6.37961C10.8251 6.32597 10.9316 6.21869 11.0913 6.16505C11.1977 6.11141 11.3042 6.05777 11.4106 6.00413C11.5703 5.89685 11.73 5.84322 11.8897 5.78958C11.943 5.73594 12.0494 5.6823 12.1559 5.62866C13.6464 4.98499 15.2966 4.66315 17 4.66315C17.1065 4.66315 17.2129 4.66315 17.3726 4.66315ZM8.26996 25.797C7.89734 25.4215 7.52472 24.9924 7.15209 24.5097L24.4525 7.1842C24.8783 7.50603 25.3042 7.88151 25.73 8.31062C26.1027 8.68609 26.4753 9.11521 26.8479 9.59796L9.54753 26.9234C9.12167 26.6016 8.69582 26.2261 8.26996 25.797ZM25.6768 25.797C23.3346 28.1571 20.2471 29.4445 17 29.4445C16.8935 29.4445 16.7871 29.4445 16.6274 29.4445C16.5741 29.4445 16.5209 29.4445 16.5209 29.4445C16.4677 29.4445 16.3612 29.4445 16.308 29.4445C16.2548 29.4445 16.2015 29.4445 16.1483 29.4445C16.0951 29.4445 15.9886 29.4445 15.9354 29.4445C15.7757 29.4445 15.6692 29.4445 15.5095 29.3908C15.5095 29.3908 15.5095 29.3908 15.4563 29.3908C15.403 29.3908 15.2966 29.3908 15.2433 29.3372C15.1901 29.3372 15.1901 29.3372 15.1369 29.3372C15.0304 29.3372 14.9772 29.3372 14.8707 29.2835H14.8175C14.0722 29.1226 13.2738 28.9617 12.5817 28.6399H12.5285C12.4753 28.5862 12.3688 28.5862 12.3156 28.5326C12.2624 28.5326 12.2624 28.479 12.2091 28.479C12.1559 28.479 12.1027 28.4253 11.9962 28.3717C11.8897 28.318 11.7833 28.2644 11.6768 28.2108C11.6236 28.2108 11.6236 28.1571 11.5703 28.1571C11.4639 28.1035 11.4106 28.0498 11.3042 28.0498C11.3042 28.0498 11.251 28.0498 11.251 27.9962C11.1445 27.9426 11.038 27.8889 10.9316 27.8353L27.7529 10.9926C27.8061 11.0999 27.8593 11.2071 27.9125 11.3144C27.9125 11.3144 27.9125 11.3681 27.9658 11.3681C28.019 11.4753 28.0722 11.529 28.0722 11.6362C28.0722 11.6899 28.1255 11.6899 28.1255 11.7435C28.1787 11.8508 28.2319 11.9581 28.2852 12.0654C28.3384 12.119 28.3384 12.1726 28.3916 12.2799C28.3916 12.3336 28.4449 12.3336 28.4449 12.3872C28.4981 12.4408 28.4981 12.5481 28.5513 12.6018V12.6554C28.8175 13.4063 29.0304 14.1573 29.1901 14.9082V14.9619C29.1901 15.0692 29.2433 15.1228 29.2433 15.2301C29.2433 15.2837 29.2433 15.2837 29.2433 15.3374C29.2433 15.391 29.2433 15.4983 29.2966 15.5519C29.2966 15.5519 29.2966 15.5519 29.2966 15.6055C29.2966 15.7665 29.3498 15.8737 29.3498 16.0347C29.3498 16.0883 29.3498 16.1956 29.3498 16.2492C29.3498 16.3029 29.3498 16.3565 29.3498 16.4101C29.3498 16.4638 29.3498 16.5711 29.3498 16.6247C29.3498 16.6783 29.3498 16.732 29.3498 16.732C29.3498 16.8393 29.3498 16.9465 29.3498 17.1074C29.3498 17.2147 29.3498 17.322 29.3498 17.4293C29.2433 20.5404 27.9658 23.5441 25.6768 25.797Z" fill="#55C4FC"/>
</g>
</svg>
